<svg width="57" height="57" viewBox="0 0 57 57" fill="none" xmlns="http://www.w3.org/2000/svg">
<path d="M6.57873 57C5.92956 57 5.267 56.9028 4.62452 56.6946C1.86052 55.8063 6.07032e-06 53.1968 6.07032e-06 50.1917V12.7769C-0.00668643 5.73262 5.52132 0 12.3142 0H36.6414C47.8647 0 57 9.46646 57 21.1052V25.1028C57 31.1061 54.7446 36.7554 50.6421 41.0097C46.5463 45.2572 41.0986 47.6029 35.3029 47.6029C29.5072 47.6029 24.2871 45.3266 20.2983 41.3568L11.9863 54.0226C10.7281 55.9312 8.70025 57 6.57204 57H6.57873ZM12.3142 6.94022C9.20888 6.94022 6.68581 9.55668 6.68581 12.7769V49.7614L27.5196 17.996C28.577 16.3859 30.3237 15.4281 32.1976 15.4281C33.951 15.4281 35.6309 16.2887 36.6883 17.7253L43.9965 27.5804L38.6893 31.814L32.2445 23.1248L24.1398 35.4853C26.9574 38.7542 30.993 40.6488 35.2962 40.6488C39.305 40.6488 43.0729 39.0318 45.9038 36.0891C48.7348 33.1534 50.3008 29.2461 50.3008 25.0958V21.0983C50.3008 13.2905 44.1705 6.93328 36.6347 6.93328H12.3142V6.94022Z" fill="#F2883C"/>
</svg>
