<svg width="1440" height="805" viewBox="0 0 1440 805" fill="none" xmlns="http://www.w3.org/2000/svg">
<path d="M1440 569.996V578.248C1362.53 621.941 1270.29 662.28 1164.61 698.609C1034.9 743.207 892.18 779.114 744.72 805H703.15C864.28 778.846 1020.66 740.681 1161.64 692.202C1268.84 655.347 1362.09 614.388 1440 569.996Z" fill="#F9A03E" fill-opacity="0.2"/>
<path d="M1440 -59.3225V-50.6132C1426.38 -61.073 1413.22 -70.2134 1401.21 -78H1413.69C1422.08 -72.3692 1430.92 -66.1433 1440 -59.3225Z" fill="#EA973D" fill-opacity="0.2"/>
<path d="M1440 489.138V497.821C1436.21 500.658 1432.35 503.487 1428.42 506.315C1343.67 567.314 1232.14 623.33 1096.92 672.809C935.19 731.989 751.51 777.13 563.91 805H516.9C719.69 778.01 919.63 730.583 1093.96 666.79C1228.49 617.561 1339.38 561.882 1423.56 501.296C1429.18 497.252 1434.66 493.199 1440 489.138Z" fill="#EA973D" fill-opacity="0.2"/>
<path d="M1440 44.5939V56.761C1423.56 32.5733 1404.88 11.7228 1386.64 -5.70438C1353.34 -37.5148 1317.89 -61.6593 1290.39 -78H1302.83C1329.28 -61.6852 1361.43 -38.9893 1391.8 -9.99865C1410.16 7.52338 1426.25 25.7611 1440 44.5939Z" fill="#DA8F3B" fill-opacity="0.2"/>
<path d="M1440 375.59V386.851C1415.01 418.851 1381.62 450.679 1340.03 482.11C1261.07 541.79 1156.5 597.262 1029.24 647C833.76 723.383 603.22 778.476 373.79 805H314.56C562.25 781.623 814.85 723.986 1026.28 641.369C1152.9 591.89 1256.87 536.746 1335.31 477.462C1379.84 443.798 1414.81 409.754 1440 375.59Z" fill="#DA8F3B" fill-opacity="0.2"/>
<path d="M1388.28 271.673C1375.2 333.362 1329.23 396.017 1251.64 457.896C1178.46 516.266 1080.86 571.203 961.55 621.182C723.91 720.744 429.28 787.607 152.04 805H0V803.068C44.69 803.603 93.04 802.689 144.35 799.628C422.86 783.003 719.65 716.053 958.6 615.948C1077.31 566.219 1174.36 511.609 1247.06 453.628C1323.55 392.62 1368.83 331.051 1381.64 270.63C1409 141.62 1342.31 48.9485 1281.54 -6.06654C1244.79 -39.3515 1205.72 -63.2718 1178.15 -78H1190.75C1217.79 -62.901 1252.98 -40.3518 1286.28 -10.2229C1325.65 25.399 1354.77 64.4958 1372.81 105.973C1395.39 157.866 1400.59 213.614 1388.28 271.673Z" fill="#CB863A" fill-opacity="0.2"/>
<path d="M1286.56 254.022C1276.18 312.753 1234.7 373.201 1163.25 433.692C1095.85 490.742 1005.22 545.145 893.86 595.374C670.14 696.298 390.41 767.128 126.4 789.711C81.8 793.523 39.48 795.566 0 796.334V790.867C39.29 790.108 81.39 788.073 125.78 784.279C389.01 761.764 667.89 691.15 890.92 590.536C1001.73 540.548 1091.86 486.473 1158.81 429.794C1229.26 370.157 1270.13 310.736 1280.29 253.194C1301.99 130.341 1235.8 44.1972 1176.45 -6.43733C1134.56 -42.1712 1090.1 -65.7725 1063.86 -78H1076.88C1103.92 -64.6688 1143.35 -42.3265 1180.75 -10.4471C1219.2 22.3291 1248.05 58.6408 1266.5 97.4876C1289.57 146.078 1296.32 198.739 1286.56 254.022Z" fill="#BC7D39" fill-opacity="0.2"/>
<path d="M1184.83 236.37C1177.17 292.144 1140.16 350.393 1074.85 409.478C1013.24 465.217 929.57 519.077 826.17 569.565C618.42 670.989 356.66 745.501 107.99 773.983C70.17 778.32 34.04 781.244 0 783.089V777.967C33.8 776.139 69.66 773.233 107.21 768.93C355.15 740.525 616.14 666.238 823.25 565.124C926.15 514.886 1009.35 461.337 1070.56 405.96C1134.98 347.685 1171.44 290.428 1178.95 235.767C1194.99 119.002 1129.21 39.3424 1071.21 -6.92885C1019.21 -48.3971 964.08 -71.1792 946.05 -78H960.14C984.85 -67.7213 1031.19 -45.8015 1075.22 -10.6712C1112.75 19.2593 1141.33 52.7944 1160.18 89.0025C1183.75 134.291 1192.04 183.873 1184.83 236.37Z" fill="#AD7537" fill-opacity="0.2"/>
<path d="M1083.1 218.719C1078.14 271.544 1045.62 327.576 986.45 385.273C930.62 439.693 853.92 493.01 758.47 543.748C566.7 645.681 322.9 723.866 89.58 758.254C58.44 762.842 28.5 766.369 0 769.042V764.265C28.21 761.617 57.84 758.125 88.65 753.581C321.3 719.287 564.39 641.335 755.58 539.712C850.57 489.224 926.86 436.201 982.33 382.126C1040.7 325.222 1072.76 270.112 1077.62 218.331C1087.98 107.792 1022.78 34.6774 966.25 -7.18754C904.81 -52.7 840.01 -72.2312 839.37 -72.4209L841.15 -76.9049C841.81 -76.7152 907.46 -56.9425 969.7 -10.8868C1006.3 16.1982 1034.62 46.948 1053.85 80.5175C1077.92 122.503 1087.76 168.999 1083.1 218.719Z" fill="#9D6C36" fill-opacity="0.2"/>
<path d="M981.36 201.068C979.12 250.935 951.08 304.768 898.04 361.06C848 414.169 778.26 466.951 690.77 517.93C514.98 620.372 289.14 702.231 71.16 742.517C46.62 747.053 22.85 750.847 0 754.003V749.571C22.52 746.441 45.94 742.698 70.09 738.232C287.46 698.057 512.65 616.44 687.92 514.3C775 463.553 844.37 411.073 894.09 358.292C946.43 302.751 974.08 249.797 976.28 200.904C980.98 96.5046 916.27 29.9088 861.16 -7.56696C801.25 -48.3109 739.38 -64.4877 738.76 -64.6429L740.21 -68.8509C740.83 -68.6871 803.51 -52.3206 864.17 -11.1024C899.85 13.137 927.89 41.1101 947.53 72.041C972.09 110.724 983.48 154.141 981.36 201.068Z" fill="#8E6335" fill-opacity="0.2"/>
<path d="M879.62 183.425C880.08 230.334 856.53 281.952 809.62 336.846C765.37 388.645 702.6 440.883 623.06 492.113C463.24 595.055 255.37 680.587 52.73 726.78C34.7 730.893 17.1 734.55 0 737.801V733.679C16.72 730.488 33.93 726.91 51.54 722.891C253.62 676.827 460.91 591.536 620.26 488.888C699.44 437.891 761.88 385.937 805.87 334.466C852.16 280.288 875.41 229.481 874.95 183.459C873.99 85.2084 809.76 25.1403 756.06 -7.95499C697.69 -43.9303 638.73 -56.7528 638.15 -56.8735L639.26 -60.7798C639.86 -60.6591 699.55 -47.69 758.64 -11.3094C793.39 10.0844 821.17 35.2723 841.2 63.5646C866.26 98.9449 879.19 139.275 879.62 183.425Z" fill="#7F5B33" fill-opacity="0.2"/>
<path d="M721.2 312.641C682.73 363.121 626.92 414.816 555.34 466.295C411.5 569.737 221.59 658.943 34.3 711.043C22.68 714.277 11.24 717.295 0 720.106V716.295C10.81 713.578 21.82 710.664 32.99 707.56C219.79 655.597 409.18 566.633 552.62 463.484C623.88 412.229 679.4 360.801 717.65 310.632C757.9 257.816 776.74 209.156 773.63 166.015C766.99 73.8605 703.19 20.2941 650.84 -8.42063C594 -39.5843 538.09 -49.0179 537.53 -49.1128L538.32 -52.7086C538.89 -52.6224 595.6 -43.0508 653.12 -11.5077C686.94 7.04049 714.45 29.4518 734.88 55.0967C760.43 87.1831 774.89 124.426 777.87 165.791C781.04 209.742 761.97 259.144 721.2 312.641Z" fill="#705232" fill-opacity="0.2"/>
<path d="M632.77 288.436C600.08 337.596 551.24 388.748 487.61 440.478C359.75 544.42 187.8 637.299 15.85 695.298C10.53 697.091 5.24 698.842 0 700.532V696.996C4.79 695.453 9.61 693.858 14.46 692.219C185.97 634.376 357.47 541.738 484.98 438.072C548.33 386.567 596.94 335.665 629.44 286.789C663.66 235.336 678.08 188.832 672.32 148.562C660 62.5557 596.69 15.5169 545.74 -8.80867C490.44 -35.2124 437.43 -41.3003 436.91 -41.3521L437.39 -44.6374C437.93 -44.5771 491.66 -38.403 547.6 -11.6974C580.49 4.00517 607.73 23.6312 628.55 46.6375C654.59 75.4212 670.59 109.577 676.12 148.157C681.99 189.151 667.4 236.345 632.77 288.436Z" fill="#614931" fill-opacity="0.1"/>
<path d="M544.32 264.231C517.41 312.072 475.54 362.681 419.87 414.661C308.61 518.534 155.71 614.586 0 678.483V675.215C154.83 611.473 306.73 515.938 417.36 412.66C472.8 360.896 514.49 310.529 541.24 262.947C569.42 212.847 579.43 168.49 571.01 131.1C553.01 51.2422 490.18 10.7225 440.64 -9.20533C386.87 -30.8406 336.77 -33.5827 336.27 -33.6086L336.47 -36.549C336.98 -36.5231 387.73 -33.7465 442.08 -11.8785C474.05 0.978485 501.01 17.8279 522.22 38.1956C548.75 63.6767 566.29 94.7455 574.36 130.54C582.93 168.567 572.82 213.554 544.32 264.231Z" fill="#51412F" fill-opacity="0.1"/>
<path d="M455.86 240.044C434.73 286.557 399.83 336.631 352.1 388.852C260.99 488.56 133.64 584.009 0 653.148V650.121C132.78 581.215 259.2 486.335 349.75 387.248C397.29 335.225 432.05 285.384 453.06 239.095C475.2 190.358 480.79 148.139 469.7 113.621C446.03 39.946 383.72 5.94537 335.62 -9.59337C283.37 -26.4773 236.1 -25.8737 235.62 -25.8651L235.56 -28.452C236.05 -28.4692 283.8 -29.0815 336.58 -12.0423C367.61 -2.03096 394.29 12.0419 415.89 29.7708C442.91 51.9407 461.99 79.9225 472.59 112.932C483.86 148.001 478.23 190.763 455.86 240.044Z" fill="#42382E" fill-opacity="0.1"/>
</svg>
